<svg width="35" height="32" viewBox="0 0 35 32" fill="none" xmlns="http://www.w3.org/2000/svg">
<path d="M24.7918 29.125V26.2083C24.7918 24.6612 24.1772 23.1775 23.0833 22.0835C21.9893 20.9896 20.5056 20.375 18.9585 20.375H7.29183C5.74473 20.375 4.261 20.9896 3.16704 22.0835C2.07308 23.1775 1.4585 24.6612 1.4585 26.2083V29.125M33.5418 29.125V26.2083C33.5409 24.9159 33.1107 23.6603 32.3188 22.6388C31.527 21.6173 30.4183 20.8877 29.1668 20.5646M23.3335 3.06458C24.5883 3.38586 25.7004 4.11561 26.4946 5.13879C27.2888 6.16197 27.7199 7.42038 27.7199 8.71563C27.7199 10.0109 27.2888 11.2693 26.4946 12.2925C25.7004 13.3156 24.5883 14.0454 23.3335 14.3667M18.9585 8.70833C18.9585 11.93 16.3468 14.5417 13.1252 14.5417C9.9035 14.5417 7.29183 11.93 7.29183 8.70833C7.29183 5.48667 9.9035 2.875 13.1252 2.875C16.3468 2.875 18.9585 5.48667 18.9585 8.70833Z" stroke="#F9F8F6" stroke-width="4" stroke-linecap="round" stroke-linejoin="round"/>
</svg>
